# xmcd CD database file
#
# Track frame offsets:
#	150
#	14753
#	35373
#	56096
#	85537
#	98143
#	130955
#	144644
#	160795
#	174247
#	189733
#
# Disc length: 2844 seconds
#
# Revision: 1
# Processed by: cddbd v1.5.1PL0 Copyright (c) Steve Scherf et al.
# Submitted via: CDex 1.51
#
DISCID=8e0b1a0b
DTITLE=Various Artist - Blue Note Plays Ray Charles
DYEAR=2005
DGENRE=Jazz
TTITLE0=Rawls Lou and Charles Ray - That's Were It's At
TTITLE1=Jimmy McGriff - I Got A Woman
TTITLE2=Stanley Turrentine - What Would I Do Without You
TTITLE3=Grant Green - This Little Girl Of Mine
TTITLE4=Henderson Bill and Smith Jimmy - Ain't That Love
TTITLE5=Roach Freddie - (Night Time Is) The Right Time
TTITLE6=Joe Williams And the Thad Jones - Hallelujah I Love Her So
TTITLE7=The Three Sounds - Drown In My Own Tears
TTITLE8=Lou Rawls - Hide Nor Hair
TTITLE9=Grant Green - I Can't Stop Loving You
TTITLE10=Jimmy Smith - I'm Movin' On
EXTD=YEAR: 2005
EXTT0=
EXTT1=
EXTT2=
EXTT3=
EXTT4=
EXTT5=
EXTT6=
EXTT7=
EXTT8=
EXTT9=
EXTT10=
PLAYORDER=
